# xmcd
# Track frame offsets:
# 150
# 11018
# 23381
# 34387
# 47469
# 59516
# 69096
# 81745
# 94049
# 106186
# 120876
# 131451
# 146242
# 157385
# 171609
# 182772
# 199430
# 216223
# 231734
# 244896
#
# Disc length: 3401 seconds
# Revision: 0
# Processed by: cddbd v1.4PL0 Copyright (c) Steve Scherf et al.
# Submitted via: VisiTrax 2.9.5.180 - For more info visit www.synapsa.com
#
DISCID=290d4714
DTITLE=Derrick Mehaffey - For the good times
DYEAR=2000
DGENRE=
TTITLE0=Before the next teardrop falls
TTITLE1=Little ole wine drinker me
TTITLE2=Good luck charm
TTITLE3=Cryin' time
TTITLE4=Yonder comes a sucker
TTITLE5=You're the only good thing
TTITLE6=Not until the next time
TTITLE7=Roses are red
TTITLE8=Help me make throgh the night
TTITLE9=Make the world go away
TTITLE10=Hello Mary Lou
TTITLE11=Don't let me cross over
TTITLE12=Anna Marie
TTITLE13=Have I told you lately
TTITLE14=My shoes keep walkin' back to you
TTITLE15=I love you because
TTITLE16=For the good times
TTITLE17=Almost persuaded
TTITLE18=Old tige
TTITLE19=He'll have to go
EXTD=
EXTT0=
EXTT1=
EXTT2=
EXTT3=
EXTT4=
EXTT5=
EXTT6=
EXTT7=
EXTT8=
EXTT9=
EXTT10=
EXTT11=
EXTT12=
EXTT13=
EXTT14=
EXTT15=
EXTT16=
EXTT17=
EXTT18=
EXTT19=
PLAYORDER=
